<?xml version="1.0" encoding="UTF-8" standalone="no"?>
<!-- Created with Inkscape (http://www.inkscape.org/) -->

<svg
   width="69.113159"
   height="69.866318"
   viewBox="0 0 18.28619 18.485465"
   version="1.1"
   id="svg1"
   inkscape:export-filename="arrow.svg"
   inkscape:export-xdpi="96"
   inkscape:export-ydpi="96"
   xmlns:inkscape="http://www.inkscape.org/namespaces/inkscape"
   xmlns:sodipodi="http://sodipodi.sourceforge.net/DTD/sodipodi-0.dtd"
   xmlns="http://www.w3.org/2000/svg"
   xmlns:svg="http://www.w3.org/2000/svg">
  <sodipodi:namedview
     id="namedview1"
     pagecolor="#ffffff"
     bordercolor="#000000"
     borderopacity="0.25"
     inkscape:showpageshadow="2"
     inkscape:pageopacity="0.0"
     inkscape:pagecheckerboard="0"
     inkscape:deskcolor="#d1d1d1"
     inkscape:document-units="mm"
     showgrid="true">
    <inkscape:grid
       id="grid2"
       units="mm"
       originx="2.4607675"
       originy="-2.465409"
       spacingx="0.99999996"
       spacingy="0.99999996"
       empcolor="#0099e5"
       empopacity="0.30196078"
       color="#0099e5"
       opacity="0.14901961"
       empspacing="5"
       dotted="false"
       gridanglex="30"
       gridanglez="30"
       visible="true" />
  </sodipodi:namedview>
  <defs
     id="defs1" />
  <g
     inkscape:label="Layer 1"
     inkscape:groupmode="layer"
     id="layer1"
     transform="translate(-92.488069,-123.49353)">
    <g
       id="g6"
       transform="matrix(3.6917837,0,0,3.6917837,-248.95785,-332.41785)">
      <g
         id="g3"
         transform="translate(2.5872253e-5,-0.09966563)">
        <path
           id="rect2"
           style="fill:#008000;fill-opacity:1;stroke:none;stroke-width:1;stroke-linecap:round;stroke-linejoin:round;stroke-miterlimit:14;stroke-dasharray:none;stroke-opacity:1"
           d="m 94.964915,123.59319 c -1.372025,0 -2.476852,1.10431 -2.476852,2.47634 v 0.016 c 0,0.004 4.98e-4,0.008 5.17e-4,0.0119 h 4.952153 c 1.8e-5,-0.004 5.16e-4,-0.008 5.16e-4,-0.0119 v -0.016 c 0,-1.37203 -1.104309,-2.47634 -2.476334,-2.47634 z" />
        <path
           id="path3"
           style="fill:#006200;fill-opacity:1;stroke:none;stroke-width:1;stroke-linecap:round;stroke-linejoin:round;stroke-miterlimit:14;stroke-dasharray:none;stroke-opacity:1"
           d="m 94.964366,128.60038 c 1.37203,0 2.47685,-1.10431 2.47685,-2.47634 v -0.016 c 0,-0.004 -5e-4,-0.008 -5.1e-4,-0.0119 h -4.95216 c -2e-5,0.004 -5.1e-4,0.008 -5.1e-4,0.0119 v 0.016 c 0,1.37203 1.10431,2.47634 2.47633,2.47634 z" />
      </g>
      <path
         sodipodi:type="star"
         style="fill:#ffffff;fill-opacity:1;stroke:none;stroke-width:1;stroke-linecap:round;stroke-linejoin:round;stroke-miterlimit:14;stroke-dasharray:none;stroke-opacity:1"
         id="path4"
         inkscape:flatsided="true"
         sodipodi:sides="3"
         sodipodi:cx="18.34375"
         sodipodi:cy="18.625"
         sodipodi:r1="4.2822766"
         sodipodi:r2="2.1205146"
         sodipodi:arg1="0.021894319"
         sodipodi:arg2="1.0690919"
         inkscape:rounded="0.055"
         inkscape:randomized="0"
         d="m 22.625,18.71875 c -0.0089,0.407844 -6.154327,3.778703 -6.503065,3.567046 -0.348738,-0.211656 -0.195289,-7.219155 0.16238,-7.415343 0.357668,-0.196187 6.349616,3.440453 6.340685,3.848297 z"
         transform="matrix(0.26458333,0,0,0.26458333,89.864774,121.08141)"
         inkscape:transform-center-x="-0.093510255"
         inkscape:transform-center-y="-0.062892717" />
      <path
         sodipodi:type="star"
         style="fill:#f5f9fc;fill-opacity:1;stroke:#515c6c;stroke-width:0.377953;stroke-linecap:round;stroke-linejoin:round;stroke-miterlimit:14;stroke-dasharray:none;stroke-opacity:1"
         id="path6"
         inkscape:flatsided="true"
         sodipodi:sides="3"
         sodipodi:cx="22.71875"
         sodipodi:cy="15.59375"
         sodipodi:r1="3.156405"
         sodipodi:r2="2.1205146"
         sodipodi:arg1="0.021894319"
         sodipodi:arg2="1.0690919"
         inkscape:rounded="0.055"
         inkscape:randomized="0"
         d="m 25.874398,15.662852 c -0.0066,0.300616 -4.536267,2.785228 -4.793316,2.629219 -0.25705,-0.156009 -0.143945,-5.321137 0.119688,-5.465744 0.263632,-0.144607 4.680211,2.535909 4.673628,2.836525 z"
         transform="matrix(0.26458333,0,0,0.26458333,88.772015,121.88023)"
         inkscape:transform-center-x="-0.093510255"
         inkscape:transform-center-y="-0.062892717"
         inkscape:label="path6" />
    </g>
  </g>
</svg>
